:FULLY-SPECIFIED
:FORCE-ALL-JOINTS-BE-3DOF
:DEGREES
421
root 10.1045 16.8827 23.5686 7.30101 -1.73933 -6.3621
lfemur -39.9017 1.38179 -15.1669
ltibia 23.2562 -0 0
lfoot -8.00941 9.01387 0.0443164
ltoes -12.0341 0 0
rfemur 15.5556 4.46998 29.6028
rtibia 11.5397 -0 0
rfoot -4.14441 4.4183 0.00971192
rtoes -16.6876 0 0
lowerback -8.47859 2.89556 2.83069
upperback -0.873172 3.4459 3.23889
thorax 3.84459 1.73773 2.23284
lowerneck -19.5186 -5.85276 -13.0989
upperneck 22.0879 -7.4872 12.6911
head 11.436 -3.01465 5.72287
lclavicle -1.01563e-14 -2.093e-14 2.26828e-30
lhumerus -49.6508 -8.77925 94.5866
lradius 24.8754 -0 0
lwrist 3.30315 0 0
lhand -6.6985 -21.279 0.00727709
lfingers 7.12502 -0 0
lthumb 19.1609 7.7997 0.00734962
rclavicle -1.01563e-14 -2.093e-14 2.26828e-30
rhumerus -33.0083 13.024 -87.3858
rradius 36.7404 -0 0
rwrist -15.0648 0 0
rhand -29.4268 -25.7598 0.0141411
rfingers 7.12502 -0 0
rthumb -2.76389 -55.7214 0.0136494
422
root 10.1376 16.9053 23.8012 7.24254 -1.71361 -6.12196
lfemur -39.4278 1.39682 -15.5785
ltibia 23.3293 -0 0
lfoot -8.11588 8.87405 0.0483093
ltoes -11.7124 0 0
rfemur 14.6533 4.26796 29.1701
rtibia 13.3218 -0 0
rfoot -4.13349 4.0358 0.0134441
rtoes -16.8606 0 0
lowerback -8.3983 2.79675 2.68078
upperback -0.902238 3.33457 3.182
thorax 3.76972 1.6813 2.246
lowerneck -19.5569 -5.8027 -13.0702
upperneck 22.1553 -7.40785 12.6233
head 11.4527 -2.98318 5.70796
lclavicle -1.15409e-14 -2.01852e-14 2.50605e-30
lhumerus -48.9773 -8.80386 94.4444
lradius 24.6619 -0 0
lwrist 2.96868 0 0
lhand -6.79179 -21.329 0.00820092
lfingers 7.12502 -0 0
lthumb 19.0712 7.75799 0.00806548
rclavicle -1.15409e-14 -2.01852e-14 2.50605e-30
rhumerus -33.3662 12.9494 -87.444
rradius 36.6286 -0 0
rwrist -14.9322 0 0
rhand -29.4583 -25.9928 0.0155663
rfingers 7.12502 -0 0
rthumb -2.79426 -55.954 0.0150232
423
root 10.1714 16.9287 24.0365 7.18107 -1.68183 -5.8702
lfemur -38.931 1.41907 -16.0074
ltibia 23.4314 -0 0
lfoot -8.23134 8.73084 0.0520284
ltoes -11.3705 0 0
rfemur 13.6966 4.0528 28.7251
rtibia 15.1836 -0 0
rfoot -4.13378 3.63753 0.0175426
rtoes -17.0406 0 0
lowerback -8.31267 2.69217 2.52303
upperback -0.93225 3.21632 3.12262
thorax 3.69092 1.6214 2.26011
lowerneck -19.5971 -5.75106 -13.04
upperneck 22.2249 -7.32592 12.5531
head 11.47 -2.95069 5.69234
lclavicle -1.29739e-14 -1.94279e-14 2.7326e-30
lhumerus -48.2757 -8.83521 94.2992
lradius 24.4434 -0 0
lwrist 2.62859 0 0
lhand -6.89419 -21.3814 0.00910039
lfingers 7.12502 -0 0
lthumb 18.9726 7.71457 0.0087395
rclavicle -1.29739e-14 -1.94279e-14 2.7326e-30
rhumerus -33.7384 12.8749 -87.5015
rradius 36.5178 -0 0
rwrist -14.8002 0 0
rhand -29.4919 -26.2333 0.016881
rfingers 7.12502 -0 0
rthumb -2.82679 -56.194 0.0162901
424
root 10.2056 16.953 24.2736 7.11691 -1.64424 -5.6078
lfemur -38.4126 1.44855 -16.4518
ltibia 23.5595 -0 0
lfoot -8.35518 8.58463 0.0554316
ltoes -11.0099 0 0
rfemur 12.6901 3.82493 28.2696
rtibia 17.1165 -0 0
rfoot -4.14523 3.22498 0.021936
rtoes -17.2263 0 0
lowerback -8.22213 2.58225 2.35804
upperback -0.96304 3.09156 3.06101
thorax 3.60861 1.55823 2.27514
lowerneck -19.6391 -5.69793 -13.0084
upperneck 22.2963 -7.24162 12.4808
head 11.4879 -2.91726 5.67607
lclavicle -1.44483e-14 -1.86592e-14 2.94523e-30
lhumerus -47.5483 -8.873 94.1513
lradius 24.2211 -0 0
lwrist 2.28401 0 0
lhand -7.00509 -21.4361 0.00996019
lfingers 7.12502 -0 0
lthumb 18.8659 7.66954 0.00936225
rclavicle -1.44483e-14 -1.86592e-14 2.94523e-30
rhumerus -34.1235 12.8007 -87.5582
rradius 36.4081 -0 0
rwrist -14.669 0 0
rhand -29.5276 -26.4803 0.0180616
rfingers 7.12502 -0 0
rthumb -2.86126 -56.4405 0.0174277
425
root 10.2402 16.978 24.5115 7.05033 -1.60109 -5.33572
lfemur -37.8736 1.48522 -16.9101
ltibia 23.711 -0 0
lfoot -8.48676 8.43581 0.0584801
ltoes -10.6325 0 0
rfemur 11.6381 3.58488 27.8059
rtibia 19.1119 -0 0
rfoot -4.16777 2.79966 0.026546
rtoes -17.4163 0 0
lowerback -8.12709 2.46741 2.18638
upperback -0.994443 2.96072 2.99741
thorax 3.52322 1.49202 2.29104
lowerneck -19.6827 -5.64343 -12.9755
upperneck 22.3694 -7.15516 12.4066
head 11.5064 -2.88295 5.65924
lclavicle -1.59569e-14 -1.78802e-14 3.14145e-30
lhumerus -46.7973 -8.91694 94.0008
lradius 23.996 -0 0
lwrist 1.93607 0 0
lhand -7.1239 -21.493 0.0107656
lfingers 7.12502 -0 0
lthumb 18.7516 7.62296 0.00992477
rclavicle -1.59569e-14 -1.78802e-14 3.14145e-30
rhumerus -34.5205 12.7266 -87.6141
rradius 36.2997 -0 0
rwrist -14.539 0 0
rhand -29.5651 -26.7326 0.0190872
rfingers 7.12502 -0 0
rthumb -2.89745 -56.6923 0.0184156
